<?xml version="1.0" encoding="UTF-8"?>
<svg xmlns="http:/* www.w3.org/2000/svg" xmlns:xlink="http:/* www.w3.org/1999/xlink" width="30px" height="30px" viewBox="0 0 35 35" version="1.1">
<g id="surface1">
<path style=" stroke:#000000;fill:#FFFFFF;fill-opacity:1;" d="M 10.886719 0.640625 C 10.746094 0.640625 10.617188 0.65625 10.5 0.699219 C 11.199219 4.199219 10.5 8.160156 10.5 8.160156 C 10.5 8.160156 6.300781 6.980469 2.800781 6.300781 C 2.800781 11.03125 7 14.246094 7 14.246094 C 7 14.246094 2.800781 14.925781 0.699219 16.953125 C 3.5 18.976562 5.601562 18.976562 6.300781 20.335938 C 4.324219 22.253906 1.398438 23.800781 1.398438 23.800781 L 7 25.066406 C 7 25.066406 6.300781 27.398438 4.898438 30.101562 C 6.648438 30.101562 8.789062 29.636719 9.484375 29.472656 C 11.011719 32.746094 14.007812 35 17.5 35 C 20.988281 35 23.972656 32.753906 25.503906 29.492188 C 26.128906 29.675781 27.742188 30.101562 29.398438 30.101562 C 28.699219 28.070312 28 25.066406 28 25.066406 C 28 25.066406 33.410156 23.988281 33.601562 23.101562 C 31.5 21.75 29.398438 19.65625 29.398438 19.65625 C 29.398438 19.65625 32.898438 18.082031 34.300781 14.699219 C 30.800781 14.699219 28 14.246094 28 14.246094 C 28 14.246094 30.101562 9.703125 32.199219 7 C 28.699219 6.320312 24.5 8.160156 24.5 8.160156 C 24.5 8.160156 23.800781 4.082031 23.800781 0.699219 C 21.929688 0.0273438 17.5 5.453125 17.5 5.453125 C 17.5 5.453125 12.992188 0.683594 10.886719 0.640625 Z M 17.5 9.101562 C 21.699219 9.101562 25.199219 13.113281 25.199219 18.199219 L 25.199219 24.5 C 25.199219 29.589844 21.699219 33.601562 17.5 33.601562 C 13.300781 33.601562 9.800781 29.589844 9.800781 24.5 L 9.800781 18.199219 C 9.800781 13.113281 13.300781 9.101562 17.5 9.101562 Z M 11.871094 14.691406 C 11.53125 14.691406 11.238281 14.941406 11.183594 15.28125 C 11.128906 15.617188 11.328125 15.945312 11.652344 16.054688 C 11.652344 16.054688 12.144531 16.226562 13.03125 16.402344 C 11.957031 16.90625 11.199219 17.992188 11.199219 19.25 C 11.199219 20.980469 12.617188 22.398438 14.351562 22.398438 C 16.082031 22.398438 17.5 20.980469 17.5 19.25 C 17.5 18.242188 17.011719 17.347656 16.265625 16.769531 C 16.65625 16.789062 17.0625 16.800781 17.5 16.800781 C 17.9375 16.800781 18.34375 16.789062 18.734375 16.769531 C 17.988281 17.347656 17.5 18.242188 17.5 19.25 C 17.5 20.980469 18.917969 22.398438 20.648438 22.398438 C 22.382812 22.398438 23.800781 20.980469 23.800781 19.25 C 23.800781 17.992188 23.042969 16.90625 21.96875 16.402344 C 22.855469 16.226562 23.347656 16.054688 23.347656 16.054688 C 23.667969 15.941406 23.859375 15.609375 23.800781 15.273438 C 23.738281 14.9375 23.449219 14.695312 23.105469 14.695312 C 23.019531 14.695312 22.933594 14.714844 22.855469 14.746094 C 22.855469 14.746094 21.144531 15.398438 17.5 15.398438 C 13.855469 15.398438 12.144531 14.746094 12.144531 14.746094 C 12.058594 14.707031 11.964844 14.691406 11.871094 14.691406 Z M 14.351562 17.5 C 15.324219 17.5 16.101562 18.273438 16.101562 19.25 C 16.101562 20.226562 15.324219 21 14.351562 21 C 13.375 21 12.601562 20.226562 12.601562 19.25 C 12.601562 18.273438 13.375 17.5 14.351562 17.5 Z M 20.648438 17.5 C 21.625 17.5 22.398438 18.273438 22.398438 19.25 C 22.398438 20.226562 21.625 21 20.648438 21 C 19.675781 21 18.898438 20.226562 18.898438 19.25 C 18.898438 18.273438 19.675781 17.5 20.648438 17.5 Z M 21 18.199219 C 20.613281 18.199219 20.300781 18.511719 20.300781 18.898438 C 20.300781 19.285156 20.613281 19.601562 21 19.601562 C 21.386719 19.601562 21.699219 19.285156 21.699219 18.898438 C 21.699219 18.511719 21.386719 18.199219 21 18.199219 Z M 14 18.898438 C 13.613281 18.898438 13.300781 19.214844 13.300781 19.601562 C 13.300781 19.988281 13.613281 20.300781 14 20.300781 C 14.386719 20.300781 14.699219 19.988281 14.699219 19.601562 C 14.699219 19.214844 14.386719 18.898438 14 18.898438 Z M 18.1875 22.390625 C 17.804688 22.394531 17.496094 22.714844 17.5 23.101562 L 17.5 25.039062 C 17.5 25.117188 17.492188 25.113281 17.488281 25.15625 C 17.453125 25.148438 17.5 25.15625 17.445312 25.128906 C 17.082031 24.960938 16.574219 24.523438 16.574219 24.523438 C 16.390625 24.351562 16.128906 24.289062 15.886719 24.363281 C 15.648438 24.4375 15.464844 24.636719 15.410156 24.882812 C 15.355469 25.128906 15.4375 25.382812 15.625 25.550781 C 15.625 25.550781 16.167969 26.082031 16.855469 26.402344 C 17.199219 26.558594 17.648438 26.730469 18.164062 26.492188 C 18.425781 26.371094 18.640625 26.128906 18.753906 25.871094 C 18.863281 25.613281 18.898438 25.34375 18.898438 25.039062 L 18.898438 23.101562 C 18.902344 22.910156 18.828125 22.730469 18.695312 22.59375 C 18.5625 22.460938 18.378906 22.386719 18.1875 22.390625 Z M 17.5 27.300781 C 14.582031 27.300781 12.378906 28.035156 12.378906 28.035156 C 12.011719 28.15625 11.8125 28.554688 11.933594 28.921875 C 12.058594 29.289062 12.453125 29.488281 12.820312 29.363281 C 12.820312 29.363281 13.042969 29.300781 13.367188 29.214844 C 13.398438 29.359375 13.4375 29.515625 13.511719 29.679688 C 13.675781 30.050781 14.101562 30.398438 14.632812 30.601562 C 14.660156 30.78125 14.628906 30.832031 14.738281 31.082031 C 14.957031 31.585938 15.570312 32.199219 16.449219 32.199219 C 17.328125 32.199219 17.941406 31.585938 18.164062 31.082031 C 18.261719 30.851562 18.230469 30.8125 18.257812 30.636719 C 18.417969 30.597656 18.445312 30.640625 18.636719 30.535156 C 19.089844 30.273438 19.542969 29.667969 19.589844 28.832031 C 21.148438 29.027344 22.179688 29.363281 22.179688 29.363281 C 22.546875 29.488281 22.941406 29.289062 23.066406 28.921875 C 23.1875 28.554688 22.988281 28.15625 22.621094 28.035156 C 22.621094 28.035156 20.417969 27.300781 17.5 27.300781 Z M 17.5 28.699219 C 17.742188 28.699219 17.96875 28.710938 18.199219 28.71875 C 18.195312 29.191406 18.070312 29.242188 17.941406 29.316406 C 17.808594 29.390625 17.675781 29.398438 17.675781 29.398438 C 17.289062 29.398438 16.976562 29.714844 16.976562 30.101562 C 16.976562 30.101562 16.964844 30.328125 16.878906 30.519531 C 16.796875 30.710938 16.796875 30.800781 16.449219 30.800781 C 16.105469 30.800781 16.105469 30.710938 16.019531 30.519531 C 15.933594 30.328125 15.925781 30.101562 15.925781 30.101562 C 15.925781 29.714844 15.613281 29.398438 15.226562 29.398438 C 14.878906 29.398438 14.878906 29.3125 14.792969 29.121094 C 14.765625 29.054688 14.753906 28.992188 14.742188 28.929688 C 15.503906 28.804688 16.445312 28.699219 17.5 28.699219 Z M 17.5 28.699219 "/>
</g>
</svg>
